# xmcd CD database file
#
# Track frame offsets:
#	150
#	16431
#	36499
#	54357
#	76198
#	94438
#	114733
#	131624
#	148074
#	167961
#	191896
#	208959
#	234827
#	250348
#
# Disc length: 3504 seconds
#
# Revision: 2
# Processed by: cddbd v1.4PL0 Copyright (c) Steve Scherf et al.
# Submitted via: CDex 1.40Beta9
#
DISCID=cf0dae0e
DTITLE=Jack de Keyzer - 6 String Lover
DYEAR=2002
DGENRE=Blues
TTITLE0=Deal Me In
TTITLE1=Soul Lover
TTITLE2=Pleasure Is My Business
TTITLE3=The Answer
TTITLE4=If You Were My Woman (And I was Your Man)
TTITLE5=King Of The Blues
TTITLE6=Rock 'Til We Drop
TTITLE7=Making Love To You
TTITLE8=It's In The Way You Love
TTITLE9=Funk This
TTITLE10=Jump Right To It
TTITLE11=Engine Trouble
TTITLE12=Drivin' Home
TTITLE13=6 String Lover
EXTD=YEAR: 2002 ID3G: 0
EXTT0=
EXTT1=
EXTT2=
EXTT3=
EXTT4=
EXTT5=
EXTT6=
EXTT7=
EXTT8=
EXTT9=
EXTT10=
EXTT11=
EXTT12=
EXTT13=
PLAYORDER=
